# xmcd
#
# Track frame offsets: 
#        150
#        15376
#        44626
#        71701
#        91726
#        118749
#        142847
#        164901
#        188272
#
# Disc length: 2991 seconds
#
# Revision: 1
# Processed by: cddbd v1.5.2PL0 Copyright (c) Steve Scherf et al.
# Submitted via: ExactAudioCopy v0.95b4
#
DISCID=730bad09
DTITLE=Psycroptic - Ob(Servant)
DYEAR=2008
DGENRE=Technical Death Metal/Hardcore
TTITLE0=Ob(Servant)
TTITLE1=A Calculated Effort
TTITLE2=Slaves Of Nil
TTITLE3=The Shifting Equilibrium
TTITLE4=Removing The Common Bond
TTITLE5=Horde In Devolution
TTITLE6=Blood Stained Lineage
TTITLE7=Immortal Army Of One
TTITLE8=Initiate
EXTD=
EXTT0=
EXTT1=
EXTT2=
EXTT3=
EXTT4=
EXTT5=
EXTT6=
EXTT7=
EXTT8=
PLAYORDER=
